# xmcd
# 
# Track frame offsets:
#     150
#     23307
#     38412
#     56996
#     73576
#     91242
#     110091
#     125456
#     139754
#     158525
#     178978
#     195158
#     216836
#     235355
# 
# Disc length: 3426
# 
# Revision: 22
# Processed by: cddbd v1.5.2PL0 Copyright (c) Steve Scherf et al.
# Submitted via: fre:ac v1.0.17
# 
DISCID=ba0d600e
DTITLE=Jamie Cullum - Twenty Something
DYEAR=2003
DGENRE=Jazz
TTITLE0=What A Difference A Day Made
TTITLE1=These Are The Days
TTITLE2=Singin' In The Rain
TTITLE3=Twenty Something
TTITLE4=But For Now
TTITLE5=Old Devil Moon
TTITLE6=I Could Have Danced All Night
TTITLE7=Blame It On My Youth
TTITLE8=I Get A Kick Out Of You
TTITLE9=All At Sea
TTITLE10=Wind Cries Mary
TTITLE11=Lover, You Should Have Come Over
TTITLE12=It's About Time
TTITLE13=Next Year, Baby
EXTD=CDDBSort:cullum_jamie,twenty_something - More accurately entitled 'Twentysomething'  - YEAR: 2003
EXTT0=
EXTT1=
EXTT2=
EXTT3=More accurately entitled 'Twentysomething'
EXTT4=
EXTT5=
EXTT6=
EXTT7=
EXTT8=
EXTT9=
EXTT10=
EXTT11=
EXTT12=
EXTT13=
PLAYORDER=
